<svg width="295" height="379" viewBox="0 0 295 379" fill="none" xmlns="http://www.w3.org/2000/svg">
<path fill-rule="evenodd" clip-rule="evenodd" d="M0 21.5C0 9.90204 9.40201 0.5 21 0.5H216L295 97V357.5C295 369.098 285.598 378.5 274 378.5H21C9.40201 378.5 0 369.098 0 357.5V21.5ZM69.2133 156.405C68.1903 157.163 66.9288 158.73 66.4104 159.888C65.4408 162.053 65.5446 163.197 67.4142 170.965L67.9623 173.243L64.6639 174.685C60.9155 176.324 60.0158 177.219 54.6636 184.63C49.8318 191.321 48.7404 193.816 49.0074 197.563C49.2656 201.187 51.3391 204.326 54.3873 205.706C55.5229 206.219 60.6198 207.513 65.7148 208.579C72.152 209.927 75.5343 210.911 76.8028 211.805C77.9569 212.619 79.8443 215.08 81.9409 218.506C86.7509 226.365 89.8861 228.31 92.6345 225.139C93.5138 224.125 93.5837 223.508 93.1079 220.968C92.4056 217.22 86.1633 205.753 83.5838 203.471C82.6255 202.624 80.0613 201.11 77.8852 200.107C75.7095 199.103 73.5751 197.949 73.1422 197.541C71.8694 196.341 71.867 194.607 73.1362 193.186C74.2508 191.937 74.701 191.814 81.0331 191.028C87.9124 190.174 89.9424 189.54 97.1232 186.004C101.915 183.645 103.409 180.205 100.678 177.818C99.0418 176.387 96.0157 176.721 91.2591 178.858C89.023 179.862 86.5942 180.789 85.8612 180.918C82.9771 181.423 75.8257 177.097 76.9312 175.514C77.2437 175.067 78.8744 174.823 82.427 174.693C83.2877 174.662 84.0552 174.65 84.7391 174.64C88.7433 174.581 89.8792 174.564 90.0575 170.797C90.2639 166.434 89.5532 166.35 86.347 165.967C85.5036 165.866 84.4875 165.744 83.27 165.519C79.5888 164.838 79.4083 161.369 82.9838 160.024C83.5143 159.825 83.9997 159.662 84.4364 159.516C87.1956 158.592 88.0155 158.318 86.0349 153.456C84.6792 152.724 82.725 152.984 77.2489 153.944C72.1025 154.847 70.7637 155.257 69.2133 156.405ZM105.266 187.192C100.521 189.969 97.2365 194.115 95.7633 199.186C94.6705 202.949 95.7111 209.999 97.9133 213.749C99.9194 217.165 104.68 220.95 108.549 222.204C111.151 223.048 111.87 223.04 117.248 222.097C122.605 221.157 123.309 220.914 125.421 219.268C128.479 216.885 131.126 212.958 132.216 209.19C133.007 206.454 133.001 205.561 132.158 200.757C131.357 196.186 130.979 195.058 129.627 193.203C127.08 189.707 123.531 187.195 119.442 185.995C116.267 185.062 115.129 184.998 111.377 185.541C108.655 185.935 106.352 186.557 105.266 187.192ZM117.181 194.907C118.232 195.218 119.944 196.219 120.987 197.131C122.68 198.612 122.946 199.155 123.485 202.233C123.994 205.134 123.927 206.052 123.06 208.05C121.742 211.088 119.162 213.058 115.705 213.664C108.781 214.878 102.947 208.622 104.63 201.789C105.995 196.243 111.506 193.222 117.181 194.907ZM49.0139 216.502C47.1982 217.594 45.6188 219.191 43.8426 221.733C40.5734 226.414 39.8134 229.954 40.8312 235.759C41.8492 241.565 43.7683 244.635 48.4347 247.923C53.1015 251.211 56.6292 251.979 62.4123 250.965C68.1953 249.951 71.2514 248.028 74.5213 243.349C77.7906 238.669 78.5508 235.13 77.5328 229.324C76.5148 223.518 74.5957 220.448 69.9294 217.16C65.1978 213.827 61.7339 213.093 55.8096 214.171C52.8325 214.712 50.8753 215.384 49.0139 216.502ZM61.31 222.857C62.2787 223.078 64.0794 224.049 65.3112 225.015C72.4289 230.598 68.2704 242.126 59.0589 242.348C56.0809 242.421 51.9445 240.01 50.5391 237.382C49.2149 234.906 49.0638 231.006 50.1915 228.405C51.9263 224.405 56.9989 221.874 61.31 222.857ZM68 97C81.2548 97 92 86.2548 92 73C92 59.7452 81.2548 49 68 49C54.7452 49 44 59.7452 44 73C44 86.2548 54.7452 97 68 97ZM249 326H49C46.2386 326 44 323.761 44 321V288.843C44 287.999 44.1942 287.203 44.6163 286.471C49.1884 278.547 78.5509 229.796 110.903 226.17C131.349 223.878 143.689 245.24 155.077 264.954C166.966 285.536 177.817 304.32 195.77 292.516C208.793 283.954 218.897 275.863 219.31 260.273C219.585 249.86 209.758 247.713 202.716 247.506C199.296 247.405 196.626 244.342 198.646 241.58C201.624 237.508 207.53 233.23 219 234.767V211C219 210.448 218.552 210 218 210H203.05C202.217 210 201.749 209.041 202.262 208.384L212.038 195.872C212.583 195.174 212.019 194.165 211.139 194.262L207.189 194.701C206.266 194.804 205.714 193.702 206.348 193.024L216.568 182.099C217.259 181.361 216.544 180.182 215.57 180.453L212.538 181.295C211.652 181.541 210.931 180.561 211.431 179.788L220.12 166.36C220.524 165.736 221.444 165.755 221.821 166.396L229.718 179.82C230.177 180.601 229.443 181.542 228.573 181.286L226.138 180.57C225.152 180.28 224.422 181.486 225.137 182.225L235.42 192.85C236.087 193.54 235.493 194.683 234.545 194.533L230.735 193.932C229.81 193.786 229.21 194.877 229.828 195.58L241.041 208.34C241.609 208.986 241.15 210 240.29 210H224.481C223.936 210 223.491 210.436 223.481 210.98L223 235.495C225.467 236.056 228.154 236.86 231.08 237.951C243.905 242.733 251.533 255.612 253.494 259.284C253.841 259.935 254 260.656 254 261.394V321C254 323.761 251.761 326 249 326Z" fill="url(#paint0_linear_38_38)"/>
<defs>
<linearGradient id="paint0_linear_38_38" x1="147.5" y1="1" x2="147.5" y2="379" gradientUnits="userSpaceOnUse">
<stop stop-color="#2A2E34" stop-opacity="0.22"/>
<stop offset="1" stop-color="#AEB4BC" stop-opacity="0.34"/>
</linearGradient>
</defs>
</svg>
